<svg width="40" height="41" viewBox="0 0 40 41" fill="none" xmlns="http://www.w3.org/2000/svg">
<path d="M20.1042 3.94189C19.6215 3.73025 19.1461 3.8783 18.8402 4.18978C18.5431 4.49235 18.3945 4.95414 18.4987 5.41973C18.6632 6.15463 18.75 6.91922 18.75 7.70458C18.75 9.49765 18.2981 10.7535 17.5205 11.7946C16.73 12.8529 15.5858 13.7145 14.1411 14.6866C14.1184 14.7019 14.0972 14.7194 14.078 14.7388L13.903 14.9151C10.8033 16.9177 8.75 20.4046 8.75 24.3712C8.75 30.5845 13.7868 35.6212 20 35.6212C26.2132 35.6212 31.25 30.5845 31.25 24.3712C31.25 22.547 30.8155 20.823 30.0439 19.2983C29.9812 19.1743 29.8607 19.0897 29.7227 19.0728C29.5847 19.056 29.4474 19.1091 29.3566 19.2143C29.2391 19.3506 29.124 19.4851 29.0106 19.6176C27.5468 21.3279 26.3655 22.7081 23.9436 23.3246C23.8406 23.3508 23.7766 23.3313 23.7312 23.303C23.6778 23.2696 23.6193 23.203 23.5793 23.0965C23.4958 22.8746 23.5316 22.5917 23.7027 22.4062C24.998 21.0019 25.9182 19.0956 26.247 16.3837C26.8629 11.3039 24.5541 5.89288 20.1042 3.94189Z" fill="#FF4C51"/>
</svg>
