<svg width="25" height="25" viewBox="0 0 25 25" fill="none" xmlns="http://www.w3.org/2000/svg">
<path d="M12.6328 0.479248L13.5858 7.99582L17.5137 1.5167L15.327 8.77104L21.5506 4.44968L16.6023 10.1875L24.0455 8.77104L17.1913 12.0001L24.5671 13.7336L16.9921 13.8957L23.0251 18.4792L16.0391 15.5463L19.6862 22.1875L14.4971 16.6666L15.1278 24.217L12.6328 17.0628L10.1379 24.217L10.7685 16.6666L5.57939 22.1875L9.22654 15.5463L2.24051 18.4792L8.27356 13.8957L0.69855 13.7336L8.07433 12.0001L1.22013 8.77104L8.66331 10.1875L3.71507 4.44968L9.93864 8.77104L7.75197 1.5167L11.6798 7.99582L12.6328 0.479248Z" fill="#FFE419"/>
</svg>
