<svg width="41" height="41" viewBox="0 0 41 41" fill="none" xmlns="http://www.w3.org/2000/svg">
<path d="M16.1247 34.4996C16.3719 34.7203 16.7467 34.4798 16.6539 34.1616L12.4548 19.7646C12.3766 19.4965 12.1396 19.3057 11.8611 19.2853C11.1815 19.2353 10.5022 19.1795 9.82339 19.1178L4.20602 18.6071C3.94376 18.5833 3.75917 18.8583 3.88333 19.0906C6.92177 24.7736 11.2971 30.1886 16.1247 34.4996Z" fill="#B699FE"/>
<path d="M20.2443 37.543C20.2782 37.6591 20.3781 37.7465 20.4991 37.7465C20.6201 37.7465 20.72 37.6591 20.7539 37.5429L25.8937 19.9207C25.9577 19.7011 25.7866 19.4837 25.558 19.4935C22.1869 19.6383 18.8112 19.6383 15.4402 19.4935C15.2116 19.4837 15.0404 19.7011 15.1045 19.9207L20.2443 37.543Z" fill="#B699FE"/>
<path d="M24.3443 34.1615C24.2515 34.4797 24.6263 34.7203 24.8735 34.4995C29.701 30.1886 34.0764 24.7736 37.1148 19.0906C37.239 18.8583 37.0544 18.5833 36.7921 18.6071L31.1747 19.1178C30.4959 19.1795 29.8167 19.2353 29.1371 19.2853C28.8586 19.3057 28.6216 19.4965 28.5434 19.7646L24.3443 34.1615Z" fill="#B699FE"/>
<path d="M36.834 16.093C37.088 16.0699 37.223 15.7818 37.0783 15.5718L31.6819 7.74717C31.2153 7.07053 30.4459 6.6665 29.6239 6.6665H25.4745C25.2376 6.6665 25.0763 6.90664 25.1659 7.12591L28.9272 16.3315C29.0365 16.5991 29.3058 16.766 29.594 16.7432C30.0456 16.7075 30.4971 16.6691 30.9484 16.6281L36.834 16.093Z" fill="#B699FE"/>
<path d="M22.4408 7.07676C22.3373 6.82833 22.0946 6.6665 21.8255 6.6665H19.1727C18.9036 6.6665 18.6608 6.82833 18.5573 7.07676L14.6281 16.507C14.5394 16.7197 14.6882 16.9559 14.9183 16.9671C18.6366 17.1471 22.3615 17.1471 26.0798 16.9671C26.31 16.9559 26.4587 16.7196 26.3701 16.507L22.4408 7.07676Z" fill="#B699FE"/>
<path d="M15.8322 7.12591C15.9218 6.90664 15.7605 6.6665 15.5236 6.6665H11.3742C10.5523 6.6665 9.78285 7.07053 9.3162 7.74717L3.91989 15.5718C3.77509 15.7818 3.91012 16.0699 4.16412 16.093L10.0497 16.6281C10.501 16.6691 10.9525 16.7075 11.4042 16.7432C11.6923 16.766 11.9616 16.5991 12.071 16.3315L15.8322 7.12591Z" fill="#B699FE"/>
</svg>
