<svg width="41" height="41" viewBox="0 0 41 41" fill="none" xmlns="http://www.w3.org/2000/svg">
<path d="M20.5007 6.75C17.0489 6.75 14.2507 9.54822 14.2507 13C14.2507 16.4518 17.0489 19.25 20.5007 19.25C23.9524 19.25 26.7507 16.4518 26.7507 13C26.7507 9.54822 23.9524 6.75 20.5007 6.75Z" fill="#FF4C51"/>
<path d="M13.834 22.5833C10.3822 22.5833 7.58398 25.3816 7.58398 28.8333V30.8138C7.58398 32.0692 8.49379 33.1396 9.73277 33.3419C16.8642 34.5062 24.1372 34.5062 31.2685 33.3419C32.5075 33.1396 33.4173 32.0692 33.4173 30.8138V28.8333C33.4173 25.3816 30.6191 22.5833 27.1673 22.5833H26.5992C26.2917 22.5833 25.9862 22.632 25.6939 22.7274L24.2513 23.1984C21.8142 23.9942 19.1871 23.9942 16.75 23.1984L15.3074 22.7274C15.0151 22.632 14.7096 22.5833 14.4021 22.5833H13.834Z" fill="#FF4C51"/>
</svg>
