<svg width="40" height="41" viewBox="0 0 40 41" fill="none" xmlns="http://www.w3.org/2000/svg">
<path fill-rule="evenodd" clip-rule="evenodd" d="M12.0822 9.6021V11.9697L9.25897 12.1976C7.26283 12.3588 5.63455 13.8617 5.31441 15.8386C5.24483 16.2682 5.18156 16.6986 5.12458 17.1296C5.09631 17.3435 5.21037 17.5506 5.40536 17.6429L5.53379 17.7037C14.5816 21.9878 25.4161 21.9878 34.4639 17.7037L34.5923 17.6429C34.7873 17.5506 34.9014 17.3435 34.8731 17.1297C34.8161 16.6986 34.7528 16.2682 34.6833 15.8386C34.3631 13.8617 32.7348 12.3588 30.7387 12.1976L27.9155 11.9698V9.6021C27.9155 8.15836 26.8593 6.93186 25.4315 6.7177L23.3983 6.41272C21.1446 6.07467 18.8531 6.07467 16.5994 6.41272L14.5662 6.7177C13.1384 6.93187 12.0822 8.15836 12.0822 9.6021ZM23.0275 8.88506C21.0196 8.58389 18.9781 8.58389 16.9702 8.88506L14.937 9.19004C14.7331 9.22064 14.5822 9.39585 14.5822 9.6021V11.7938C18.1903 11.5871 21.8074 11.5871 25.4155 11.7938V9.6021C25.4155 9.39585 25.2646 9.22064 25.0607 9.19004L23.0275 8.88506Z" fill="#FF4C51"/>
<path d="M35.196 20.6182C35.1836 20.3847 34.9391 20.2388 34.7253 20.3335C25.4404 24.4445 14.5573 24.4445 5.27238 20.3335C5.05855 20.2388 4.81408 20.3847 4.80165 20.6182C4.63203 23.804 4.80295 27.0033 5.31441 30.1616C5.63455 32.1385 7.26283 33.6414 9.25897 33.8026L12.3788 34.0544C17.4506 34.4638 22.5471 34.4638 27.6188 34.0544L30.7387 33.8026C32.7348 33.6414 34.3631 32.1385 34.6833 30.1616C35.1947 27.0033 35.3657 23.804 35.196 20.6182Z" fill="#FF4C51"/>
</svg>
