<svg width="40" height="41" viewBox="0 0 40 41" fill="none" xmlns="http://www.w3.org/2000/svg">
<path d="M33.061 28.6775C33.7997 21.5783 33.7997 14.4217 33.061 7.32254C32.83 5.10202 30.2698 3.97722 28.4781 5.30908L21.6387 10.3931C19.4827 11.9957 16.8678 12.8611 14.1815 12.8611H7.79948C6.87901 12.8611 6.13281 13.6073 6.13281 14.5278V21.4722C6.13281 22.3927 6.879 23.1389 7.79948 23.1389L14.1815 23.1389C16.8678 23.1389 19.4827 24.0043 21.6387 25.6069L28.4781 30.691C30.2698 32.0228 32.83 30.898 33.061 28.6775Z" fill="#FFE419"/>
<path d="M15.1552 26.8367C15.2509 26.4626 15.1684 26.0652 14.9316 25.7602C14.6948 25.4552 14.3304 25.2767 13.9442 25.2767L10.6109 25.2767C10.1374 25.2767 9.70458 25.5442 9.49284 25.9677L7.82618 29.301C7.54155 29.8703 7.73008 30.5625 8.26404 30.9088L11.8207 33.2154C12.1583 33.4344 12.5808 33.4775 12.9557 33.331C13.3306 33.1845 13.612 32.8665 13.7118 32.4766L15.1552 26.8367Z" fill="#FFE419"/>
</svg>
