<svg width="40" height="41" viewBox="0 0 40 41" fill="none" xmlns="http://www.w3.org/2000/svg">
<path d="M18.8938 6.75C18.1304 6.75001 17.4154 7.12343 16.9791 7.74985L9.92601 17.8783C8.60155 19.7803 8.01123 22.0978 8.26439 24.4016L8.80676 29.3373C9.03854 31.4465 10.6943 33.1171 12.8013 33.3678L16.3297 33.7875C19.0242 34.108 21.7561 33.8302 24.3309 32.9738C26.1331 32.3744 27.5766 31.0065 28.2721 29.2391L31.1198 22.0023C31.2575 21.6523 31.3527 21.2869 31.4033 20.9142C31.8438 17.6689 28.9114 14.9804 25.7165 15.7003L19.22 17.1641L21.1531 9.66558C21.5338 8.18891 20.4187 6.74997 18.8938 6.75Z" fill="#86C45F"/>
</svg>
