<svg width="40" height="41" viewBox="0 0 40 41" fill="none" xmlns="http://www.w3.org/2000/svg">
<path d="M21.4424 5.49376C20.8001 4.38685 19.2016 4.38684 18.5593 5.49376L14.0359 13.2893C13.7186 13.8361 13.1701 14.2092 12.545 14.3037L4.06785 15.584C2.64405 15.7991 2.14462 17.5968 3.25346 18.5154L9.56861 23.7475C10.1532 24.2318 10.428 24.9957 10.286 25.7414L8.6341 34.4167C8.37296 35.7881 9.81261 36.8536 11.0479 36.2032L19.0302 32.0001C19.6378 31.6802 20.3639 31.6802 20.9715 32.0001L28.9538 36.2032C30.1891 36.8536 31.6287 35.7881 31.3676 34.4167L29.7156 25.7414C29.5736 24.9957 29.8485 24.2318 30.4331 23.7475L36.7482 18.5154C37.857 17.5968 37.3576 15.7991 35.9338 15.584L27.4566 14.3037C26.8315 14.2092 26.2831 13.8361 25.9658 13.2893L21.4424 5.49376Z" fill="#B699FE"/>
</svg>
