<svg width="91" height="91" viewBox="0 0 91 91" fill="none" xmlns="http://www.w3.org/2000/svg">
<path d="M59.0375 25.6262C58.8588 25.3168 58.5287 25.1262 58.1714 25.1262L32.5321 25.1262C32.1748 25.1262 31.8447 25.3168 31.666 25.6262L18.8464 47.8305C18.6677 48.1399 18.6677 48.5211 18.8464 48.8305L31.666 71.0348C31.8447 71.3442 32.1748 71.5348 32.5321 71.5348L58.1714 71.5348C58.5287 71.5348 58.8588 71.3442 59.0375 71.0348L71.8571 48.8305C72.0358 48.5211 72.0358 48.1399 71.8571 47.8305L59.0375 25.6262Z" fill="#14FFF7"/>
<ellipse cx="11" cy="19" rx="11" ry="19" transform="matrix(-4.37114e-08 1 1 4.37114e-08 44.4521 36.9314)" fill="#FF6D6D"/>
</svg>
