<svg width="91" height="91" viewBox="0 0 91 91" fill="none" xmlns="http://www.w3.org/2000/svg">
<path d="M37.2921 44.1614C36.5072 41.1954 39.2162 38.4864 42.1822 39.2713L54.0418 42.4094C54.7124 42.5869 55.4176 42.5869 56.0882 42.4094L67.9477 39.2713C70.9138 38.4864 73.6227 41.1954 72.8379 44.1614L69.6997 56.021C69.5223 56.6916 69.5223 57.3968 69.6997 58.0674L72.8379 69.927C73.6227 72.893 70.9138 75.6019 67.9478 74.8171L56.0882 71.679C55.4176 71.5015 54.7124 71.5015 54.0418 71.679L42.1822 74.8171C39.2162 75.6019 36.5072 72.893 37.2921 69.927L40.4302 58.0674C40.6077 57.3968 40.6077 56.6916 40.4302 56.021L37.2921 44.1614Z" fill="#FF8D2D"/>
<rect x="37.7178" y="12.9792" width="10" height="63.0537" transform="rotate(22.8809 37.7178 12.9792)" fill="#8459F0"/>
</svg>
