<svg width="91" height="91" viewBox="0 0 91 91" fill="none" xmlns="http://www.w3.org/2000/svg">
<path d="M20.5 40.6552L35.1246 39.1424L21.6833 33.1844L36.0596 36.2649L25.1172 26.4449L37.838 33.8172L30.4657 21.0964L40.2857 32.0388L37.2052 17.6625L43.1632 31.1039L44.676 16.4792L46.1888 31.1039L52.1468 17.6625L49.0662 32.0388L58.8863 21.0964L51.514 33.8172L64.2347 26.4449L53.2923 36.2649L67.6687 33.1844L54.2273 39.1424L68.8519 40.6552L54.2273 42.168L67.6687 48.126L53.2923 45.0455L64.2347 54.8655L51.514 47.4932L58.8863 60.214L49.0662 49.2716L52.1468 63.6479L46.1888 50.2065L44.676 64.8312L43.1632 50.2065L37.2052 63.6479L40.2857 49.2716L30.4657 60.214L37.838 47.4932L25.1172 54.8655L36.0596 45.0455L21.6833 48.126L35.1246 42.168L20.5 40.6552Z" fill="#FF53E5"/>
<rect x="75.5" y="64.4792" width="10" height="61" transform="rotate(90 75.5 64.4792)" fill="#41BCFF"/>
</svg>
