<svg width="90" height="91" viewBox="0 0 90 91" fill="none" xmlns="http://www.w3.org/2000/svg">
<path d="M45.2958 19.2887C44.9864 19.11 44.6052 19.11 44.2958 19.2887L22.0914 32.1084C21.782 32.287 21.5914 32.6171 21.5914 32.9744L21.5914 58.6138C21.5914 58.971 21.782 59.3011 22.0914 59.4798L44.2958 72.2995C44.6052 72.4781 44.9864 72.4781 45.2958 72.2995L67.5001 59.4798C67.8095 59.3011 68.0001 58.971 68.0001 58.6137L68.0001 32.9744C68.0001 32.6171 67.8095 32.287 67.5001 32.1084L45.2958 19.2887Z" fill="#FF40EC"/>
<rect x="31" y="50" width="10" height="28" transform="rotate(-90 31 50)" fill="white"/>
<rect x="40" y="31" width="10" height="28" fill="white"/>
</svg>
