<svg width="90" height="91" viewBox="0 0 90 91" fill="none" xmlns="http://www.w3.org/2000/svg">
<path d="M32 31.5L43.9729 30.4948L32.4066 27.2418L44.3534 28.5207L33.6117 23.1376L45.1006 26.6543L35.5718 19.3356L46.1875 24.963L38.216 15.9732L47.5748 23.5079L41.4487 13.172L49.2125 22.3418L45.1532 11.0333L51.0413 21.5066L49.1954 9.63424L52.995 21.0326L53.4294 9.02549L55.0032 20.937L57.7021 9.22902L56.9932 21.2231L61.859 10.2375L58.893 21.8806L65.75 12.0144L60.6341 22.8859L69.2344 14.4956L62.1535 24.2024L72.1862 17.5914L63.3963 25.7827L74.4988 21.1899L64.3175 27.5697L76.0886 25.161L64.8839 29.4987L76.8981 29.3612L65.075 31.5L76.8981 33.6388L64.8839 33.5013L76.0886 37.839L64.3175 35.4303L74.4988 41.8101L63.3963 37.2173L72.1862 45.4086L62.1535 38.7976L69.2344 48.5044L60.6341 40.1141L65.75 50.9856L58.893 41.1194L61.859 52.7625L56.9932 41.7769L57.7021 53.771L55.0032 42.063L53.4294 53.9745L52.995 41.9674L49.1954 53.3658L51.0413 41.4934L45.1532 51.9667L49.2125 40.6582L41.4487 49.828L47.5748 39.4921L38.216 47.0268L46.1875 38.037L35.5718 43.6644L45.1006 36.3457L33.6117 39.8624L44.3534 34.4793L32.4066 35.7582L43.9729 32.5052L32 31.5Z" fill="#FF9408"/>
<rect x="18" y="69.0957" width="6" height="50" transform="rotate(-90 18 69.0957)" fill="#986C32"/>
<rect x="16" y="53.3347" width="5.66593" height="21.5603" transform="rotate(-46.9003 16 53.3347)" fill="#986C32"/>
<rect x="23" y="69.0957" width="6" height="5" fill="#986C32"/>
<rect x="58" y="69.0957" width="6" height="5" fill="#986C32"/>
</svg>
