<svg width="90" height="91" viewBox="0 0 90 91" fill="none" xmlns="http://www.w3.org/2000/svg">
<path d="M56.3979 25.6985C49.2185 21.5535 40.3731 21.5535 33.1936 25.6985C26.0142 29.8436 21.5914 37.504 21.5914 45.7941C21.5914 54.0842 26.0142 61.7446 33.1936 65.8896C40.3731 70.0347 49.2185 70.0347 56.398 65.8896C63.5774 61.7446 68.0001 54.0842 68.0001 45.7941C68.0001 37.504 63.5774 29.8436 56.3979 25.6985Z" fill="#A3FF40"/>
<path d="M69.2852 17L76.3562 24.0711L60.1934 40.2339L52 41.3562L53.1223 33.1629L69.2852 17Z" fill="#8459F0"/>
<path d="M21.0703 17L13.9992 24.0711L30.1621 40.2339L38 41L37.2332 33.1629L21.0703 17Z" fill="#8459F0"/>
<path d="M40 79.2737H50V56.4159L45 50.5L40 56.4159V79.2737Z" fill="#8459F0"/>
</svg>
