<svg width="40" height="41" viewBox="0 0 40 41" fill="none" xmlns="http://www.w3.org/2000/svg">
<path d="M15.6247 34.4996C15.8719 34.7203 16.2467 34.4798 16.1539 34.1616L11.9548 19.7646C11.8766 19.4965 11.6396 19.3057 11.3611 19.2853C10.6815 19.2353 10.0022 19.1795 9.32339 19.1178L3.70602 18.6071C3.44376 18.5833 3.25917 18.8583 3.38333 19.0906C6.42177 24.7736 10.7971 30.1886 15.6247 34.4996Z" fill="#B699FE"/>
<path d="M19.7443 37.543C19.7782 37.6591 19.8781 37.7465 19.9991 37.7465C20.1201 37.7465 20.22 37.6591 20.2539 37.5429L25.3937 19.9207C25.4577 19.7011 25.2866 19.4837 25.058 19.4935C21.6869 19.6383 18.3112 19.6383 14.9402 19.4935C14.7116 19.4837 14.5404 19.7011 14.6045 19.9207L19.7443 37.543Z" fill="#B699FE"/>
<path d="M23.8443 34.1615C23.7515 34.4797 24.1263 34.7203 24.3735 34.4995C29.201 30.1886 33.5764 24.7736 36.6148 19.0906C36.739 18.8583 36.5544 18.5833 36.2921 18.6071L30.6747 19.1178C29.9959 19.1795 29.3167 19.2353 28.6371 19.2853C28.3586 19.3057 28.1216 19.4965 28.0434 19.7646L23.8443 34.1615Z" fill="#B699FE"/>
<path d="M36.334 16.093C36.588 16.0699 36.723 15.7818 36.5783 15.5718L31.1819 7.74717C30.7153 7.07053 29.9459 6.6665 29.1239 6.6665H24.9745C24.7376 6.6665 24.5763 6.90664 24.6659 7.12591L28.4272 16.3315C28.5365 16.5991 28.8058 16.766 29.094 16.7432C29.5456 16.7075 29.9971 16.6691 30.4484 16.6281L36.334 16.093Z" fill="#B699FE"/>
<path d="M21.9408 7.07676C21.8373 6.82833 21.5946 6.6665 21.3255 6.6665H18.6727C18.4036 6.6665 18.1608 6.82833 18.0573 7.07676L14.1281 16.507C14.0394 16.7197 14.1882 16.9559 14.4183 16.9671C18.1366 17.1471 21.8615 17.1471 25.5798 16.9671C25.81 16.9559 25.9587 16.7196 25.8701 16.507L21.9408 7.07676Z" fill="#B699FE"/>
<path d="M15.3322 7.12591C15.4218 6.90664 15.2605 6.6665 15.0236 6.6665H10.8742C10.0523 6.6665 9.28285 7.07053 8.8162 7.74717L3.41989 15.5718C3.27509 15.7818 3.41012 16.0699 3.66412 16.093L9.54973 16.6281C10.001 16.6691 10.4525 16.7075 10.9042 16.7432C11.1923 16.766 11.4616 16.5991 11.571 16.3315L15.3322 7.12591Z" fill="#B699FE"/>
</svg>
