<svg width="40" height="40" viewBox="0 0 40 40" fill="none" xmlns="http://www.w3.org/2000/svg">
<path d="M14.0013 8.75C9.36654 8.75 5.41797 12.2155 5.41797 16.7163C5.41797 19.8213 6.87188 22.4353 8.79879 24.6007C10.7191 26.7587 13.1965 28.57 15.4363 30.0861L19.3006 32.7018C19.7238 32.9883 20.2788 32.9883 20.702 32.7018L24.5663 30.0861C26.8061 28.57 29.2835 26.7587 31.2038 24.6007C33.1307 22.4353 34.5846 19.8212 34.5846 16.7163C34.5846 12.2155 30.6361 8.75 26.0013 8.75C23.6122 8.75 21.5099 9.87023 20.0013 11.3197C18.4927 9.87023 16.3904 8.75 14.0013 8.75Z" fill="#FF4C51"/>
</svg>
