<svg width="40" height="41" viewBox="0 0 40 41" fill="none" xmlns="http://www.w3.org/2000/svg">
<path d="M19.9987 6.75C16.5469 6.75 13.7487 9.54822 13.7487 13C13.7487 16.4518 16.5469 19.25 19.9987 19.25C23.4505 19.25 26.2487 16.4518 26.2487 13C26.2487 9.54822 23.4505 6.75 19.9987 6.75Z" fill="#FFE419"/>
<path d="M13.332 22.5833C9.88025 22.5833 7.08203 25.3816 7.08203 28.8333V30.8138C7.08203 32.0692 7.99184 33.1396 9.23082 33.3419C16.3622 34.5062 23.6352 34.5062 30.7666 33.3419C32.0056 33.1396 32.9154 32.0692 32.9154 30.8138V28.8333C32.9154 25.3816 30.1171 22.5833 26.6654 22.5833H26.0973C25.7898 22.5833 25.4842 22.632 25.1919 22.7274L23.7494 23.1984C21.3122 23.9942 18.6852 23.9942 16.248 23.1984L14.8055 22.7274C14.5132 22.632 14.2076 22.5833 13.9001 22.5833H13.332Z" fill="#FFE419"/>
</svg>
