<svg width="90" height="90" viewBox="0 0 90 90" fill="none" xmlns="http://www.w3.org/2000/svg">
<path d="M27.1276 40.3855C26.8787 39.6105 27.6106 38.8787 28.3855 39.1276L45.7592 44.7076C45.958 44.7715 46.1719 44.7715 46.3708 44.7076L63.7444 39.1276C64.5194 38.8787 65.2512 39.6105 65.0023 40.3855L59.4223 57.7592C59.3584 57.958 59.3584 58.1719 59.4223 58.3707L65.0023 75.7444C65.2512 76.5194 64.5194 77.2512 63.7444 77.0023L46.3708 71.4222C46.1719 71.3584 45.958 71.3584 45.7592 71.4222L28.3855 77.0023C27.6106 77.2512 26.8787 76.5194 27.1276 75.7444L32.7077 58.3707C32.7715 58.1719 32.7715 57.958 32.7077 57.7591L27.1276 40.3855Z" fill="#FF8D2D"/>
<ellipse cx="46" cy="25.5" rx="11" ry="11.5" fill="#40CEBB"/>
</svg>
