<svg width="90" height="90" viewBox="0 0 90 90" fill="none" xmlns="http://www.w3.org/2000/svg">
<path d="M18 31.5L26.6348 29.157L23.0829 20.9453L30.2984 26.2354L34.504 18.3385L34.8668 27.2781L43.6631 25.6426L36.9 31.5L43.6631 37.3574L34.8668 35.7219L34.504 44.6615L30.2984 36.7646L23.0829 42.0547L26.6348 33.843L18 31.5Z" fill="#41BCFF"/>
<path d="M24 67L29.9656 66.0418L24.2891 63.972L30.3283 64.1601L25.1461 61.0534L31.0405 62.3811L26.5399 58.3497L32.0766 60.769L28.4203 55.9587L33.399 59.382L30.7191 53.9668L34.96 58.2705L33.3534 52.4459L36.7032 57.4744L36.2279 51.451L38.5655 57.0226L39.2387 51.0181L40.4796 56.9314L42.277 51.1629L42.3764 57.2041L45.2331 51.88L44.1874 57.8309L48 53.1436L45.847 58.7891L50.4778 54.908L47.2952 60.044L52.5768 57.1095L48.4798 61.5503L54.2214 59.6684L49.3579 63.2536L55.3519 62.4923L49.8978 65.0923L55.9276 65.4791L50.08 67L55.9276 68.5209L49.8978 68.9077L55.3519 71.5077L49.3579 70.7464L54.2214 74.3316L48.4798 72.4497L52.5769 76.8905L47.2952 73.956L50.4778 79.092L45.847 75.2109L48 80.8564L44.1874 76.1691L45.2331 82.12L42.3764 76.7959L42.277 82.8371L40.4796 77.0686L39.2387 82.9819L38.5655 76.9774L36.2279 82.549L36.7032 76.5256L33.3534 81.5541L34.96 75.7295L30.7191 80.0332L33.399 74.618L28.4203 78.0413L32.0766 73.231L26.5399 75.6503L31.0405 71.6189L25.1461 72.9466L30.3283 69.8399L24.2891 70.028L29.9656 67.9582L24 67Z" fill="#FF7171"/>
<path d="M50.153 42.8162C49.59 42.4177 49.59 41.5823 50.153 41.1838L56.8276 36.4588C57.0069 36.332 57.1394 36.1496 57.2046 35.9399L59.6358 28.1319C59.8408 27.4733 60.6353 27.2152 61.1883 27.6274L67.7446 32.5153C67.9206 32.6466 68.135 32.7162 68.3546 32.7135L76.5317 32.6128C77.2214 32.6043 77.7124 33.2801 77.4912 33.9335L74.8686 41.6793C74.7982 41.8873 74.7982 42.1127 74.8686 42.3207L77.4912 50.0665C77.7124 50.7198 77.2214 51.3957 76.5317 51.3872L68.3546 51.2865C68.135 51.2838 67.9206 51.3534 67.7446 51.4847L61.1883 56.3726C60.6353 56.7848 59.8408 56.5267 59.6358 55.8681L57.2047 48.0601C57.1394 47.8504 57.0069 47.668 56.8276 47.5412L50.153 42.8162Z" fill="#9B2DE4"/>
</svg>
