<svg width="40" height="41" viewBox="0 0 40 41" fill="none" xmlns="http://www.w3.org/2000/svg">
<path fill-rule="evenodd" clip-rule="evenodd" d="M12.0822 9.1978V11.5655L9.25897 11.7933C7.26283 11.9545 5.63455 13.4574 5.31441 15.4343C5.24483 15.8639 5.18156 16.2943 5.12458 16.7253C5.09631 16.9392 5.21037 17.1463 5.40536 17.2386L5.53379 17.2994C14.5816 21.5835 25.4161 21.5835 34.4639 17.2994L34.5923 17.2386C34.7873 17.1463 34.9014 16.9392 34.8731 16.7254C34.8161 16.2943 34.7528 15.8639 34.6833 15.4343C34.3631 13.4574 32.7348 11.9545 30.7387 11.7933L27.9155 11.5655V9.1978C27.9155 7.75406 26.8593 6.52757 25.4315 6.3134L23.3983 6.00842C21.1446 5.67037 18.8531 5.67037 16.5994 6.00842L14.5662 6.3134C13.1384 6.52757 12.0822 7.75406 12.0822 9.1978ZM23.0275 8.48077C21.0196 8.17959 18.9781 8.17959 16.9702 8.48077L14.937 8.78574C14.7331 8.81634 14.5822 8.99155 14.5822 9.1978V11.3895C18.1903 11.1828 21.8074 11.1828 25.4155 11.3895V9.1978C25.4155 8.99155 25.2646 8.81634 25.0607 8.78574L23.0275 8.48077Z" fill="#E21235"/>
<path d="M35.196 20.2139C35.1836 19.9804 34.9391 19.8345 34.7253 19.9292C25.4404 24.0402 14.5573 24.0402 5.27238 19.9292C5.05855 19.8345 4.81408 19.9804 4.80165 20.2139C4.63203 23.3997 4.80295 26.599 5.31441 29.7573C5.63455 31.7342 7.26283 33.2371 9.25897 33.3983L12.3788 33.6501C17.4506 34.0595 22.5471 34.0595 27.6188 33.6501L30.7387 33.3983C32.7348 33.2371 34.3631 31.7342 34.6833 29.7573C35.1947 26.599 35.3657 23.3997 35.196 20.2139Z" fill="#E21235"/>
</svg>
