<svg width="40" height="41" viewBox="0 0 40 41" fill="none" xmlns="http://www.w3.org/2000/svg">
<path d="M31.5897 5.67636C32.0778 5.18821 32.0778 4.39675 31.5897 3.9086C31.1015 3.42044 30.31 3.42044 29.8219 3.9086L28.6434 5.08711C27.8177 5.91283 27.8599 7.19594 28.5803 7.9998C33.4177 13.3977 33.2423 21.7014 28.0541 26.8896C25.3707 29.573 21.8539 30.9154 18.3368 30.9169L18.3314 30.9169L18.3263 30.9169C15.0468 30.9157 11.7676 29.7487 9.16436 27.4157C8.3605 26.6953 7.07738 26.6531 6.25166 27.4788L5.07315 28.6573C4.58499 29.1455 4.58499 29.9369 5.07315 30.4251C5.5613 30.9133 6.35276 30.9133 6.84091 30.4251L7.75833 29.5077C10.458 31.8254 13.7376 33.1124 17.0814 33.369V35.9169H14.1647C13.4744 35.9169 12.9147 36.4765 12.9147 37.1669C12.9147 37.8572 13.4744 38.4169 14.1647 38.4169H22.4981C23.1884 38.4169 23.7481 37.8572 23.7481 37.1669C23.7481 36.4765 23.1884 35.9169 22.4981 35.9169H19.5814V33.369C23.3142 33.0828 26.9669 31.5123 29.8219 28.6573C35.8705 22.6087 36.1539 12.9789 30.6722 6.59378L31.5897 5.67636Z" fill="#FFE419"/>
<path fill-rule="evenodd" clip-rule="evenodd" d="M7.49807 17.1669C7.49807 11.1838 12.3483 6.33352 18.3314 6.33352C24.3145 6.33352 29.1647 11.1838 29.1647 17.1669C29.1647 23.1499 24.3145 28.0002 18.3314 28.0002C12.3483 28.0002 7.49807 23.1499 7.49807 17.1669ZM21.6647 10.9169C19.1334 10.9169 17.0814 12.9689 17.0814 15.5002C17.0814 18.0315 19.1334 20.0835 21.6647 20.0835C24.196 20.0835 26.2481 18.0315 26.2481 15.5002C26.2481 12.9689 24.196 10.9169 21.6647 10.9169ZM10.4147 21.3335C10.4147 20.1829 11.3475 19.2502 12.4981 19.2502C13.6487 19.2502 14.5814 20.1829 14.5814 21.3335C14.5814 22.4841 13.6487 23.4169 12.4981 23.4169C11.3475 23.4169 10.4147 22.4841 10.4147 21.3335Z" fill="#FFE419"/>
</svg>
