<svg width="40" height="41" viewBox="0 0 40 41" fill="none" xmlns="http://www.w3.org/2000/svg">
<path d="M17.0846 16.3332C17.0846 14.7223 18.3905 13.4165 20.0013 13.4165C21.6121 13.4165 22.918 14.7223 22.918 16.3332C22.918 17.944 21.6121 19.2498 20.0013 19.2498C18.3905 19.2498 17.0846 17.944 17.0846 16.3332Z" fill="#86C45F"/>
<path fill-rule="evenodd" clip-rule="evenodd" d="M8.33464 16.3332C8.33464 9.88985 13.558 4.6665 20.0013 4.6665C26.4446 4.6665 31.668 9.88985 31.668 16.3332C31.668 18.6202 31.0099 20.7534 29.8729 22.554L34.4172 30.425C34.6625 30.85 34.6366 31.3792 34.3507 31.7781C34.0649 32.177 33.5722 32.3717 33.0909 32.276L28.7307 31.4091L27.3014 35.6186C27.1436 36.0833 26.7286 36.4126 26.2403 36.4607C25.7519 36.5088 25.2806 36.2667 25.0352 35.8417L20.5017 27.9893C20.3357 27.9963 20.1689 27.9998 20.0013 27.9998C19.8337 27.9998 19.6669 27.9963 19.501 27.9893L14.9674 35.8417C14.7223 36.2663 14.2516 36.5083 13.7637 36.4608C13.2758 36.4133 12.8607 36.085 12.7021 35.6212L11.2655 31.4202L6.90908 32.2766C6.42807 32.3711 5.93619 32.1758 5.6511 31.777C5.366 31.3782 5.34033 30.8496 5.58544 30.4251L10.1298 22.554C8.99269 20.7535 8.33464 18.6202 8.33464 16.3332ZM11.8112 24.6418C13.1983 26.0092 14.9261 27.0319 16.8558 27.5709L14.1776 32.2096L13.278 29.5787C13.0757 28.9872 12.4675 28.636 11.8541 28.7566L9.1258 29.293L11.8112 24.6418ZM23.1468 27.5709L25.821 32.2027L26.7158 29.5674C26.9175 28.9735 27.528 28.621 28.1432 28.7433L30.8729 29.2861L28.1915 24.6418C26.8044 26.0092 25.0765 27.0319 23.1468 27.5709ZM20.0013 10.9165C17.0098 10.9165 14.5846 13.3416 14.5846 16.3332C14.5846 19.3247 17.0098 21.7498 20.0013 21.7498C22.9928 21.7498 25.418 19.3247 25.418 16.3332C25.418 13.3416 22.9928 10.9165 20.0013 10.9165Z" fill="#86C45F"/>
</svg>
