<svg width="40" height="41" viewBox="0 0 40 41" fill="none" xmlns="http://www.w3.org/2000/svg">
<path d="M19.9987 2.1311C20.6891 2.1311 21.2487 2.69075 21.2487 3.3811V5.04777C21.2487 5.73813 20.6891 6.29777 19.9987 6.29777C19.3083 6.29777 18.7487 5.73813 18.7487 5.04777V3.3811C18.7487 2.69075 19.3083 2.1311 19.9987 2.1311Z" fill="#13C4BE"/>
<path d="M19.9987 10.4644C14.706 10.4644 10.4154 14.755 10.4154 20.0478C10.4154 25.3405 14.706 29.6311 19.9987 29.6311C25.2914 29.6311 29.582 25.3405 29.582 20.0478C29.582 14.755 25.2914 10.4644 19.9987 10.4644Z" fill="#13C4BE"/>
<path d="M9.09749 7.37881C8.60934 6.89066 7.81788 6.89066 7.32973 7.37881C6.84157 7.86697 6.84157 8.65842 7.32973 9.14658L8.50824 10.3251C8.99639 10.8132 9.78785 10.8132 10.276 10.3251C10.7642 9.83694 10.7642 9.04548 10.276 8.55732L9.09749 7.37881Z" fill="#13C4BE"/>
<path d="M37.9154 20.0478C37.9154 20.7381 37.3557 21.2978 36.6654 21.2978H34.9987C34.3083 21.2978 33.7487 20.7381 33.7487 20.0478C33.7487 19.3574 34.3083 18.7978 34.9987 18.7978H36.6654C37.3557 18.7978 37.9154 19.3574 37.9154 20.0478Z" fill="#13C4BE"/>
<path d="M32.6677 9.14656C33.1558 8.65841 33.1558 7.86695 32.6677 7.3788C32.1795 6.89064 31.388 6.89064 30.8999 7.3788L29.7214 8.55731C29.2332 9.04546 29.2332 9.83692 29.7214 10.3251C30.2095 10.8132 31.001 10.8132 31.4891 10.3251L32.6677 9.14656Z" fill="#13C4BE"/>
<path d="M19.9987 33.7978C20.6891 33.7978 21.2487 34.3574 21.2487 35.0478V36.7144C21.2487 37.4048 20.6891 37.9644 19.9987 37.9644C19.3083 37.9644 18.7487 37.4048 18.7487 36.7144V35.0478C18.7487 34.3574 19.3083 33.7978 19.9987 33.7978Z" fill="#13C4BE"/>
<path d="M31.4893 29.7705C31.0011 29.2823 30.2096 29.2823 29.7215 29.7705C29.2333 30.2586 29.2333 31.0501 29.7215 31.5382L30.9 32.7168C31.3882 33.2049 32.1796 33.2049 32.6678 32.7168C33.1559 32.2286 33.1559 31.4371 32.6678 30.949L31.4893 29.7705Z" fill="#13C4BE"/>
<path d="M6.2487 20.0478C6.2487 20.7381 5.68905 21.2978 4.9987 21.2978H3.33203C2.64168 21.2978 2.08203 20.7381 2.08203 20.0478C2.08203 19.3574 2.64168 18.7978 3.33203 18.7978H4.9987C5.68905 18.7978 6.2487 19.3574 6.2487 20.0478Z" fill="#13C4BE"/>
<path d="M10.2759 31.5382C10.764 31.0501 10.764 30.2586 10.2759 29.7705C9.78774 29.2823 8.99628 29.2823 8.50813 29.7705L7.32961 30.949C6.84146 31.4371 6.84146 32.2286 7.32961 32.7167C7.81777 33.2049 8.60923 33.2049 9.09738 32.7167L10.2759 31.5382Z" fill="#13C4BE"/>
</svg>
